:FULLY-SPECIFIED
:FORCE-ALL-JOINTS-BE-3DOF
:DEGREES
917
root 2.8142 16.0206 32.1051 1.89574 13.4101 2.43858
lfemur -13.8549 18.3052 -8.23093
ltibia 33.8399 -0 0
lfoot -20.3942 -5.2827 0.389504
ltoes -3.81339 0 0
rfemur -28.3089 -12.692 -3.58587
rtibia 68.3449 -0 0
rfoot -3.12625 -13.8346 -1.20738
rtoes 10.7348 -0 0
lowerback 1.71408 -1.64666 -2.16395
upperback -0.205012 -2.23368 -3.81587
thorax -1.17118 -1.14484 -2.64195
lowerneck -7.01258 -4.24585 0.0832343
upperneck 3.53785 -5.91621 4.47441
head 2.56255 -2.81332 1.13303
lclavicle 4.11202e-15 2.36602e-14 2.11085e-30
lhumerus -53.9666 -39.9895 110.651
lradius 59.1045 -0 0
lwrist 17.222 0 0
lhand 33.7153 19.4588 0.162631
lfingers 7.12502 -0 0
lthumb 56.9265 35.4448 -0.0184185
rclavicle 4.11202e-15 2.36602e-14 2.11085e-30
rhumerus -20.7317 5.86598 -59.6643
rradius 85.1468 -0 0
rwrist -10.7092 0 0
rhand -4.25985 -20.2675 4.79669
rfingers 7.12502 -0 0
rthumb 21.4117 -47.2934 5.015
918
root 2.75617 15.9956 32.1297 2.09684 12.812 2.56262
lfemur -13.0641 17.7269 -7.69815
ltibia 32.718 -0 0
lfoot -20.7405 -5.62412 0.401898
ltoes -4.81386 0 0
rfemur -28.4047 -12.7415 -3.75964
rtibia 67.595 -0 0
rfoot -3.72217 -13.2175 -1.24599
rtoes 8.7382 -0 0
lowerback 1.55488 -1.60401 -2.07364
upperback -0.254798 -2.17011 -3.93305
thorax -1.13703 -1.11551 -2.81986
lowerneck -7.01004 -4.07759 0.218352
upperneck 3.46697 -5.698 4.43575
head 2.52915 -2.70575 1.10715
lclavicle 3.47749e-15 2.46687e-14 2.17786e-30
lhumerus -54.152 -40.1403 110.712
lradius 58.974 -0 0
lwrist 17.5261 0 0
lhand 33.9752 19.6486 0.167799
lfingers 7.12502 -0 0
lthumb 57.1513 35.42 -0.0190036
rclavicle 3.47749e-15 2.46687e-14 2.17786e-30
rhumerus -19.2157 4.878 -57.4138
rradius 83.0983 -0 0
rwrist -10.8375 0 0
rhand -5.57034 -21.4019 4.95362
rfingers 7.12502 -0 0
rthumb 20.1479 -48.5244 5.17925
919
root 2.69814 15.9705 32.1544 2.29615 12.2135 2.68422
lfemur -12.2814 17.1417 -7.17546
ltibia 31.5961 -0 0
lfoot -21.087 -5.9656 0.412228
ltoes -5.81433 0 0
rfemur -28.5004 -12.7912 -3.93337
rtibia 66.8452 -0 0
rfoot -4.31848 -12.5999 -1.27818
rtoes 6.74154 -0 0
lowerback 1.39576 -1.56112 -1.98346
upperback -0.304713 -2.10664 -4.05027
thorax -1.10297 -1.08608 -2.99775
lowerneck -7.00711 -3.90934 0.35345
upperneck 3.39597 -5.47983 4.39683
head 2.49571 -2.59819 1.08122
lclavicle 2.84295e-15 2.56772e-14 2.2337e-30
lhumerus -54.3379 -40.291 110.774
lradius 58.8435 -0 0
lwrist 17.8303 0 0
lhand 34.2351 19.8384 0.172106
lfingers 7.12502 -0 0
lthumb 57.3762 35.3952 -0.0194911
rclavicle 2.84295e-15 2.56772e-14 2.2337e-30
rhumerus -17.7419 3.8319 -55.1932
rradius 81.0499 -0 0
rwrist -10.9659 0 0
rhand -6.88399 -22.5398 5.08462
rfingers 7.12502 -0 0
rthumb 18.8805 -49.759 5.31637
920
root 2.6401 15.9455 32.179 2.49373 11.6146 2.80342
lfemur -11.5068 16.5498 -6.66279
ltibia 30.4742 -0 0
lfoot -21.4335 -6.30714 0.420492
ltoes -6.8148 0 0
rfemur -28.5959 -12.8412 -4.10704
rtibia 66.0953 -0 0
rfoot -4.91512 -11.9821 -1.30394
rtoes 4.74489 -0 0
lowerback 1.23671 -1.51797 -1.89339
upperback -0.354755 -2.04327 -4.16755
thorax -1.069 -1.05654 -3.17563
lowerneck -7.00377 -3.7411 0.48853
upperneck 3.32484 -5.26172 4.35766
head 2.46222 -2.49065 1.05523
lclavicle 2.20842e-15 2.66856e-14 2.27837e-30
lhumerus -54.5245 -40.4415 110.837
lradius 58.713 -0 0
lwrist 18.1345 0 0
lhand 34.495 20.0283 0.175552
lfingers 7.12502 -0 0
lthumb 57.601 35.3703 -0.0198811
rclavicle 2.20842e-15 2.66856e-14 2.27837e-30
rhumerus -16.3113 2.73001 -53.0027
rradius 79.0015 -0 0
rwrist -11.0943 0 0
rhand -8.20024 -23.6806 5.18958
rfingers 7.12502 -0 0
rthumb 17.6102 -50.9967 5.42624
921
root 2.58206 15.9205 32.2037 2.68962 11.0153 2.92028
lfemur -10.7401 15.9513 -6.16003
ltibia 29.3523 -0 0
lfoot -21.78 -6.64873 0.426692
ltoes -7.81527 0 0
rfemur -28.6913 -12.8915 -4.28066
rtibia 65.3455 -0 0
rfoot -5.512 -11.364 -1.32326
rtoes 2.74823 -0 0
lowerback 1.07773 -1.47457 -1.80345
upperback -0.404925 -1.98 -4.28488
thorax -1.03513 -1.0269 -3.35348
lowerneck -7.00004 -3.57286 0.623594
upperneck 3.25359 -5.04365 4.31823
head 2.42868 -2.38312 1.02917
lclavicle 1.57389e-15 2.76941e-14 2.31188e-30
lhumerus -54.7117 -40.5918 110.9
lradius 58.5824 -0 0
lwrist 18.4386 0 0
lhand 34.7549 20.2182 0.178136
lfingers 7.12502 -0 0
lthumb 57.8259 35.3455 -0.0201736
rclavicle 1.57389e-15 2.76941e-14 2.31188e-30
rhumerus -14.9249 1.5747 -50.842
rradius 76.953 -0 0
rwrist -11.2227 0 0
rhand -9.51851 -24.8238 5.26838
rfingers 7.12502 -0 0
rthumb 16.3376 -52.2367 5.50873
922
root 2.52403 15.8955 32.2284 2.88388 10.4156 3.03482
lfemur -9.98113 15.3465 -5.6671
ltibia 28.2304 -0 0
lfoot -22.1266 -6.99035 0.430825
ltoes -8.81574 0 0
rfemur -28.7865 -12.9421 -4.45423
rtibia 64.5956 -0 0
rfoot -6.10906 -10.7457 -1.33615
rtoes 0.751581 -0 0
lowerback 0.918816 -1.43093 -1.71363
upperback -0.455222 -1.91684 -4.40225
thorax -1.00134 -0.997146 -3.53131
lowerneck -6.99592 -3.40464 0.758646
upperneck 3.18222 -4.82564 4.27853
head 2.3951 -2.27561 1.00305
lclavicle 9.39351e-16 2.87026e-14 2.33422e-30
lhumerus -54.8996 -40.742 110.965
lradius 58.4519 -0 0
lwrist 18.7428 0 0
lhand 35.0149 20.4081 0.179859
lfingers 7.12502 -0 0
lthumb 58.0507 35.3206 -0.0203687
rclavicle 9.39351e-16 2.87026e-14 2.33422e-30
rhumerus -13.5835 0.368329 -48.7107
rradius 74.9046 -0 0
rwrist -11.351 0 0
rhand -10.8382 -25.9685 5.32096
rfingers 7.12502 -0 0
rthumb 15.0634 -53.4783 5.56378
923
root 2.46599 15.8705 32.253 3.07656 9.81558 3.14708
lfemur -9.22971 14.7354 -5.1839
ltibia 27.1085 -0 0
lfoot -22.4732 -7.33198 0.432891
ltoes -9.81622 0 0
rfemur -28.8816 -12.993 -4.62775
rtibia 63.8458 -0 0
rfoot -6.70622 -10.1273 -1.34259
rtoes -1.24507 0 0
lowerback 0.759977 -1.38703 -1.62393
upperback -0.505647 -1.85378 -4.51968
thorax -0.967649 -0.967292 -3.70913
lowerneck -6.9914 -3.23642 0.893686
upperneck 3.11071 -4.60767 4.23858
head 2.36147 -2.16811 0.976874
lclavicle 3.04817e-16 2.9711e-14 2.34539e-30
lhumerus -55.0881 -40.892 111.03
lradius 58.3214 -0 0
lwrist 19.047 0 0
lhand 35.2748 20.598 0.180721
lfingers 7.12502 -0 0
lthumb 58.2755 35.2958 -0.0204662
rclavicle 3.04817e-16 2.9711e-14 2.34539e-30
rhumerus -12.2879 -0.886768 -46.6079
rradius 72.8561 -0 0
rwrist -11.4794 0 0
rhand -12.1589 -27.1143 5.34727
rfingers 7.12502 -0 0
rthumb 13.7882 -54.721 5.59131
924
root 2.40795 15.8455 32.2777 3.26771 9.21515 3.2571
lfemur -8.48569 14.1183 -4.71033
ltibia 25.9866 -0 0
lfoot -22.8197 -7.67362 0.432891
ltoes -10.8167 0 0
rfemur -28.9766 -13.0441 -4.80122
rtibia 63.0959 -0 0
rfoot -7.30342 -9.50894 -1.34259
rtoes -3.24173 0 0
lowerback 0.60121 -1.34289 -1.53436
upperback -0.556199 -1.79082 -4.63716
thorax -0.934051 -0.937333 -3.88692
lowerneck -6.98648 -3.06822 1.02872
upperneck 3.03907 -4.38975 4.19837
head 2.32779 -2.06063 0.950634
lclavicle -3.29717e-16 3.07195e-14 2.34539e-30
lhumerus -55.2773 -41.0419 111.096
lradius 58.1909 -0 0
lwrist 19.3511 0 0
lhand 35.5348 20.7878 0.180721
lfingers 7.12502 -0 0
lthumb 58.5004 35.2709 -0.0204662
rclavicle -3.29717e-16 3.07195e-14 2.34539e-30
rhumerus -11.0383 -2.18826 -44.5328
rradius 70.8077 -0 0
rwrist -11.6078 0 0
rhand -13.4797 -28.2604 5.34727
rfingers 7.12502 -0 0
rthumb 12.5126 -55.964 5.59131
925
root 2.34991 15.8205 32.3023 3.45738 8.61436 3.36491
lfemur -7.74893 13.4954 -4.2463
ltibia 24.8647 -0 0
lfoot -23.1663 -8.01526 0.430825
ltoes -11.8172 0 0
rfemur -29.0714 -13.0955 -4.97464
rtibia 62.3461 -0 0
rfoot -7.90058 -8.89057 -1.33615
rtoes -5.23838 0 0
lowerback 0.442516 -1.2985 -1.44491
upperback -0.606879 -1.72797 -4.75469
thorax -0.900546 -0.90727 -4.0647
lowerneck -6.98116 -2.90003 1.16374
upperneck 2.9673 -4.17189 4.1579
head 2.29407 -1.95316 0.924333
lclavicle -9.64251e-16 3.1728e-14 2.33422e-30
lhumerus -55.4671 -41.1915 111.162
lradius 58.0604 -0 0
lwrist 19.6553 0 0
lhand 35.7947 20.9777 0.179859
lfingers 7.12502 -0 0
lthumb 58.7252 35.2461 -0.0203687
rclavicle -9.64251e-16 3.1728e-14 2.33422e-30
rhumerus -9.83538 -3.53384 -42.4843
rradius 68.7592 -0 0
rwrist -11.7361 0 0
rhand -14.8004 -29.4061 5.32096
rfingers 7.12502 -0 0
rthumb 11.2374 -57.2067 5.56378
926
root 2.29187 15.7955 32.327 3.64561 8.01322 3.47054
lfemur -7.01924 12.8667 -3.79172
ltibia 23.7428 -0 0
lfoot -23.5129 -8.35688 0.426692
ltoes -12.8176 0 0
rfemur -29.1661 -13.1472 -5.148
rtibia 61.5962 -0 0
rfoot -8.49764 -8.27231 -1.32326
rtoes -7.23503 0 0
lowerback 0.283893 -1.25386 -1.35558
upperback -0.657686 -1.66522 -4.87228
thorax -0.867135 -0.877104 -4.24246
lowerneck -6.97545 -2.73185 1.29876
upperneck 2.8954 -3.95407 4.11716
head 2.2603 -1.84571 0.89797
lclavicle -1.59879e-15 3.27365e-14 2.31188e-30
lhumerus -55.6576 -41.3411 111.23
lradius 57.9299 -0 0
lwrist 19.9595 0 0
lhand 36.0547 21.1676 0.178136
lfingers 7.12502 -0 0
lthumb 58.95 35.2212 -0.0201736
rclavicle -1.59879e-15 3.27365e-14 2.31188e-30
rhumerus -8.67936 -4.92126 -40.4609
rradius 66.7108 -0 0
rwrist -11.8645 0 0
rhand -16.1201 -30.5509 5.26838
rfingers 7.12502 -0 0
rthumb 9.96318 -58.4483 5.50873
